<svg xmlns="http://www.w3.org/2000/svg" xmlns:xlink="http://www.w3.org/1999/xlink" width="500" zoomAndPan="magnify" viewBox="0 0 375 374.999991" height="500" preserveAspectRatio="xMidYMid meet" version="1.0"><defs><g/></defs><g fill="#183172" fill-opacity="1"><g transform="translate(52.880956, 280.300776)"><g><path d="M 187.921875 -22.203125 C 188.753906 -20.742188 189.273438 -19.234375 189.484375 -17.671875 C 189.691406 -16.109375 189.691406 -14.597656 189.484375 -13.140625 C 189.273438 -10.210938 188.128906 -7.601562 186.046875 -5.3125 C 184.585938 -3.644531 182.816406 -2.082031 180.734375 -0.625 C 179.066406 0.414062 176.773438 0.9375 173.859375 0.9375 C 171.566406 0.9375 169.476562 0.519531 167.59375 -0.3125 C 165.09375 -1.351562 162.90625 -2.707031 161.03125 -4.375 C 158.738281 -5.625 156.550781 -7.1875 154.46875 -9.0625 L 145.71875 -16.578125 C 142.164062 -13.234375 138.253906 -10.414062 133.984375 -8.125 C 129.710938 -5.832031 125.285156 -3.957031 120.703125 -2.5 C 114.023438 -0.414062 107.191406 0.78125 100.203125 1.09375 C 93.222656 1.40625 86.296875 0.726562 79.421875 -0.9375 C 72.546875 -2.601562 65.925781 -5.207031 59.5625 -8.75 C 53.207031 -12.300781 47.425781 -16.890625 42.21875 -22.515625 C 35.957031 -28.972656 30.847656 -36.421875 26.890625 -44.859375 C 22.929688 -53.304688 19.804688 -62.113281 17.515625 -71.28125 C 15.222656 -80.457031 13.757812 -89.734375 13.125 -99.109375 C 12.5 -108.492188 12.503906 -117.359375 13.140625 -125.703125 C 13.765625 -133.617188 15.015625 -142.210938 16.890625 -151.484375 C 18.765625 -160.765625 21.628906 -169.675781 25.484375 -178.21875 C 29.335938 -186.769531 34.234375 -194.378906 40.171875 -201.046875 C 46.117188 -207.722656 53.363281 -212.3125 61.90625 -214.8125 C 82.550781 -221.28125 100.0625 -222.476562 114.4375 -218.40625 C 128.820312 -214.34375 140.601562 -207.101562 149.78125 -196.6875 C 157.070312 -188.34375 162.851562 -178.539062 167.125 -167.28125 C 171.40625 -156.03125 174.328125 -144.253906 175.890625 -131.953125 C 177.453125 -119.648438 177.816406 -107.296875 176.984375 -94.890625 C 176.148438 -82.492188 174.273438 -70.976562 171.359375 -60.34375 L 165.71875 -45.34375 C 168.851562 -42.425781 171.828125 -39.765625 174.640625 -37.359375 C 177.453125 -34.960938 179.273438 -33.242188 180.109375 -32.203125 C 181.566406 -30.742188 182.972656 -29.234375 184.328125 -27.671875 C 185.679688 -26.109375 186.878906 -24.285156 187.921875 -22.203125 Z M 66.609375 -54.71875 C 72.859375 -46.59375 80.410156 -41.742188 89.265625 -40.171875 C 98.128906 -38.609375 106.414062 -40.125 114.125 -44.71875 C 111.207031 -47.632812 108.5 -50.238281 106 -52.53125 C 103.5 -54.820312 101.9375 -56.382812 101.3125 -57.21875 C 98.1875 -60.34375 95.789062 -64.097656 94.125 -68.484375 C 92.457031 -71.816406 91.9375 -74.941406 92.5625 -77.859375 C 93.1875 -81.191406 94.539062 -84.003906 96.625 -86.296875 C 97.664062 -87.128906 98.601562 -87.910156 99.4375 -88.640625 C 100.269531 -89.367188 101.207031 -90.046875 102.25 -90.671875 C 103.289062 -91.304688 104.488281 -91.726562 105.84375 -91.9375 C 107.195312 -92.144531 108.601562 -92.25 110.0625 -92.25 C 112.144531 -92.25 114.226562 -91.515625 116.3125 -90.046875 C 118.195312 -89.003906 120.390625 -87.648438 122.890625 -85.984375 C 123.929688 -84.941406 125.023438 -83.953125 126.171875 -83.015625 C 127.316406 -82.078125 128.410156 -81.085938 129.453125 -80.046875 C 130.285156 -79.210938 131.117188 -78.429688 131.953125 -77.703125 C 132.785156 -76.972656 133.722656 -76.191406 134.765625 -75.359375 C 136.222656 -82.234375 137.316406 -89.523438 138.046875 -97.234375 C 138.773438 -104.953125 138.828125 -112.71875 138.203125 -120.53125 C 137.578125 -128.351562 136.117188 -136.066406 133.828125 -143.671875 C 131.535156 -151.285156 128.304688 -158.425781 124.140625 -165.09375 C 119.128906 -173.019531 112.769531 -178.390625 105.0625 -181.203125 C 97.351562 -184.015625 87.972656 -182.710938 76.921875 -177.296875 C 72.546875 -175.003906 68.84375 -171.71875 65.8125 -167.4375 C 62.789062 -163.164062 60.238281 -158.375 58.15625 -153.0625 C 56.070312 -147.75 54.457031 -142.273438 53.3125 -136.640625 C 52.164062 -131.015625 51.488281 -125.703125 51.28125 -120.703125 C 51.070312 -115.273438 51.125 -109.59375 51.4375 -103.65625 C 51.75 -97.71875 52.476562 -91.773438 53.625 -85.828125 C 54.769531 -79.890625 56.382812 -74.257812 58.46875 -68.9375 C 60.550781 -63.625 63.265625 -58.882812 66.609375 -54.71875 Z M 66.609375 -54.71875 "/></g></g></g><g fill="#183172" fill-opacity="1"><g transform="translate(255.185655, 280.300776)"><g><path d="M 51.90625 -118.515625 C 51.90625 -112.671875 51.957031 -106.097656 52.0625 -98.796875 C 52.164062 -91.503906 52.21875 -83.945312 52.21875 -76.125 C 52.21875 -68.3125 52.21875 -60.601562 52.21875 -53 C 52.21875 -45.394531 52.113281 -38.359375 51.90625 -31.890625 C 51.695312 -28.765625 51.382812 -25.378906 50.96875 -21.734375 C 50.550781 -18.085938 49.71875 -14.695312 48.46875 -11.5625 C 47.21875 -8.4375 45.285156 -5.882812 42.671875 -3.90625 C 40.066406 -1.925781 36.578125 -1.039062 32.203125 -1.25 C 25.742188 -1.664062 21.109375 -4.476562 18.296875 -9.6875 C 15.484375 -14.90625 13.867188 -22.203125 13.453125 -31.578125 C 13.453125 -36.367188 13.398438 -41.890625 13.296875 -48.140625 C 13.191406 -54.398438 13.082031 -60.757812 12.96875 -67.21875 C 12.863281 -73.6875 12.8125 -79.992188 12.8125 -86.140625 C 12.8125 -92.296875 12.8125 -97.875 12.8125 -102.875 C 12.8125 -105.789062 12.757812 -109.332031 12.65625 -113.5 C 12.550781 -117.675781 12.601562 -121.953125 12.8125 -126.328125 C 13.03125 -130.703125 13.554688 -134.921875 14.390625 -138.984375 C 15.222656 -143.054688 16.578125 -146.445312 18.453125 -149.15625 C 19.910156 -150.820312 21.992188 -152.125 24.703125 -153.0625 C 27.410156 -154 30.273438 -154.46875 33.296875 -154.46875 C 36.316406 -154.46875 39.234375 -153.945312 42.046875 -152.90625 C 44.867188 -151.863281 46.90625 -150.40625 48.15625 -148.53125 C 48.988281 -147.28125 49.613281 -145.503906 50.03125 -143.203125 C 50.445312 -140.910156 50.8125 -138.359375 51.125 -135.546875 C 51.4375 -132.734375 51.644531 -129.816406 51.75 -126.796875 C 51.851562 -123.773438 51.90625 -121.015625 51.90625 -118.515625 Z M 40.03125 -181.671875 C 33.5625 -180.003906 28.191406 -180.679688 23.921875 -183.703125 C 19.648438 -186.722656 16.992188 -191.257812 15.953125 -197.3125 C 15.117188 -201.6875 15.429688 -205.539062 16.890625 -208.875 C 18.347656 -212.207031 20.535156 -214.757812 23.453125 -216.53125 C 26.367188 -218.300781 29.703125 -219.082031 33.453125 -218.875 C 37.203125 -218.664062 40.957031 -217.207031 44.71875 -214.5 C 48.257812 -212 50.8125 -209.082031 52.375 -205.75 C 53.9375 -202.414062 54.457031 -199.179688 53.9375 -196.046875 C 53.414062 -192.921875 52.007812 -190.054688 49.71875 -187.453125 C 47.425781 -184.847656 44.195312 -182.921875 40.03125 -181.671875 Z M 40.03125 -181.671875 "/></g></g></g></svg>